<svg preserveAspectRatio="none" width="100%" height="100%" overflow="visible" style="display: block;" viewBox="0 0 17.6213 17.621" fill="none" xmlns="http://www.w3.org/2000/svg">
<path id="Icon" fill-rule="evenodd" clip-rule="evenodd" d="M17.328 15.914L13.596 12.183C14.576 10.906 15.165 9.314 15.165 7.583C15.165 3.402 11.763 0 7.583 0C3.401 0 0 3.402 0 7.583C0 11.765 3.401 15.166 7.583 15.166C9.313 15.166 10.905 14.577 12.182 13.598L15.914 17.328C16.109 17.524 16.365 17.621 16.621 17.621C16.877 17.621 17.133 17.524 17.328 17.328C17.719 16.938 17.719 16.305 17.328 15.914ZM2 7.583C2 4.505 4.505 2 7.583 2C10.661 2 13.165 4.505 13.165 7.583C13.165 10.661 10.661 13.166 7.583 13.166C4.505 13.166 2 10.661 2 7.583Z" fill="var(--fill-0, #0A76DB)"/>
</svg>
