<svg preserveAspectRatio="none" width="100%" height="100%" overflow="visible" style="display: block;" viewBox="0 0 8.00265 9.33604" fill="none" xmlns="http://www.w3.org/2000/svg">
<path id="vector" d="M7.86486 5.51401L4.36377 9.18183C4.26791 9.27977 4.1387 9.33604 4.00116 9.33604C3.86361 9.33604 3.73357 9.28002 3.63896 9.18103L0.137866 5.51322C-0.0521931 5.2952 -0.0450242 4.99719 0.154913 4.80546C0.352892 4.61465 0.670699 4.62182 0.862217 4.82239L3.501 7.58758V0.500365C3.501 0.224237 3.72503 0 3.9824 0C4.23977 0 4.50131 0.224237 4.50131 0.500365V7.588L7.13964 4.82255C7.33045 4.62197 7.64834 4.6148 7.84694 4.80562C8.04825 4.99719 8.05451 5.2952 7.86486 5.51401Z" fill="var(--fill-0, #212121)"/>
</svg>
