<svg preserveAspectRatio="none" width="100%" height="100%" overflow="visible" style="display: block;" viewBox="0 0 12.0002 14" fill="none" xmlns="http://www.w3.org/2000/svg">
<path id="vector" d="M11.8375 8.68125L6.33748 13.8656C6.2406 13.9563 6.12185 14 5.99998 14C5.8781 14 5.75876 13.9554 5.66341 13.8653L0.163414 8.68094C-0.0405548 8.4875 -0.0556798 8.15937 0.129851 7.94687C0.315883 7.73319 0.632664 7.72003 0.836414 7.91144L5.49998 12.3094V0.518438C5.49998 0.231844 5.7236 0 5.97185 0C6.2201 0 6.49998 0.231875 6.49998 0.518438V12.3091L11.1625 7.91219C11.3661 7.72078 11.6831 7.73394 11.869 7.94763C12.0562 8.15938 12.0406 8.4875 11.8375 8.68125Z" fill="var(--fill-0, #212121)"/>
</svg>
