<svg preserveAspectRatio="none" width="100%" height="100%" overflow="visible" style="display: block;" viewBox="0 0 19.2768 20.0033" fill="none" xmlns="http://www.w3.org/2000/svg">
<path id="Vector" d="M0.97813 15.0017C0.54588 14.253 0.22144 13.4717 0 12.6756C0.97247 12.1794 1.63839 11.1683 1.63839 10.0017C1.63839 8.83596 0.97347 7.82546 0.00219989 7.32887C0.44892 5.71797 1.29724 4.21773 2.50341 2.99147C3.41937 3.58562 4.62802 3.6568 5.63839 3.07346C6.64876 2.49012 7.19144 1.40781 7.13487 0.317503C8.79997 -0.113937 10.5234 -0.0984967 12.1418 0.320083C12.0862 1.40952 12.6288 2.49058 13.6384 3.07346C14.6488 3.65678 15.8574 3.58562 16.7733 2.99153C17.352 3.58132 17.8664 4.25297 18.2987 5.00167C18.7309 5.75036 19.0554 6.53171 19.2768 7.32774C18.3043 7.82393 17.6384 8.83506 17.6384 10.0017C17.6384 11.1675 18.3033 12.1779 19.2746 12.6745C18.8279 14.2854 17.9796 15.7856 16.7734 17.0119C15.8574 16.4178 14.6488 16.3466 13.6384 16.9299C12.628 17.5132 12.0854 18.5956 12.1419 19.6859C10.4769 20.1173 8.75347 20.1019 7.135 19.6833C7.19058 18.5938 6.64796 17.5128 5.63839 16.9299C4.62805 16.3466 3.41946 16.4177 2.50351 17.0118C1.92484 16.422 1.41039 15.7504 0.97813 15.0017ZM6.63839 15.1979C7.72977 15.828 8.51357 16.8242 8.88897 17.9674C9.38727 18.0148 9.88887 18.0155 10.3873 17.969C10.7625 16.8252 11.5465 15.8283 12.6384 15.1979C13.7303 14.5674 14.9857 14.387 16.1639 14.6339C16.4533 14.2255 16.7035 13.7907 16.9116 13.3355C16.1093 12.4388 15.6384 11.2619 15.6384 10.0017C15.6384 8.74146 16.1093 7.56466 16.9116 6.66796C16.8075 6.44196 16.6925 6.21968 16.5666 6.00167C16.4407 5.78365 16.3057 5.57294 16.162 5.36988C14.9844 5.61622 13.7298 5.4356 12.6384 4.80551C11.547 4.17541 10.7633 3.17914 10.3878 2.03601C9.88957 1.9886 9.38787 1.98792 8.88957 2.03438C8.51427 3.17817 7.73027 4.1751 6.63839 4.80551C5.54647 5.43593 4.29112 5.6164 3.11295 5.36949C2.82352 5.77787 2.5733 6.21263 2.36523 6.66783C3.16748 7.56457 3.63839 8.74146 3.63839 10.0017C3.63839 11.2619 3.1675 12.4387 2.36523 13.3354C2.46934 13.5614 2.58431 13.7837 2.71019 14.0017C2.83606 14.2197 2.97107 14.4304 3.11479 14.6335C4.29244 14.3872 5.54705 14.5678 6.63839 15.1979ZM9.63837 13.0017C7.98157 13.0017 6.63839 11.6586 6.63839 10.0017C6.63839 8.34486 7.98157 7.00167 9.63837 7.00167C11.2953 7.00167 12.6384 8.34486 12.6384 10.0017C12.6384 11.6586 11.2953 13.0017 9.63837 13.0017ZM9.63837 11.0017C10.1907 11.0017 10.6384 10.554 10.6384 10.0017C10.6384 9.44936 10.1907 9.00166 9.63837 9.00166C9.08607 9.00166 8.63837 9.44936 8.63837 10.0017C8.63837 10.554 9.08607 11.0017 9.63837 11.0017Z" fill="var(--fill-0, #404040)"/>
</svg>
