<svg preserveAspectRatio="none" width="100%" height="100%" overflow="visible" style="display: block;" viewBox="0 0 24 15" fill="none" xmlns="http://www.w3.org/2000/svg">
<g id="Icon">
<path d="M14.5 5C14.2239 5 14 5.22386 14 5.5V6.5C14 6.77614 14.2239 7 14.5 7C14.7761 7 15 6.77614 15 6.5V5.5C15 5.22386 14.7761 5 14.5 5Z" fill="var(--fill-0, #17191C)"/>
<path d="M16 6.5C16 6.22386 16.2239 6 16.5 6C16.7761 6 17 6.22386 17 6.5V7.5C17 7.77614 16.7761 8 16.5 8C16.2239 8 16 7.77614 16 7.5V6.5Z" fill="var(--fill-0, #17191C)"/>
<path d="M18.5 7C18.2239 7 18 7.22386 18 7.5V8.5C18 8.77614 18.2239 9 18.5 9C18.7761 9 19 8.77614 19 8.5V7.5C19 7.22386 18.7761 7 18.5 7Z" fill="var(--fill-0, #17191C)"/>
<path d="M20 8.5C20 8.22386 20.2239 8 20.5 8C20.7761 8 21 8.22386 21 8.5V9.5C21 9.77614 20.7761 10 20.5 10C20.2239 10 20 9.77614 20 9.5V8.5Z" fill="var(--fill-0, #17191C)"/>
<path d="M9.5 5C9.22386 5 9 5.22386 9 5.5V6.5C9 6.77614 9.22386 7 9.5 7C9.77614 7 10 6.77614 10 6.5V5.5C10 5.22386 9.77614 5 9.5 5Z" fill="var(--fill-0, #17191C)"/>
<path d="M7.5 6C7.22386 6 7 6.22386 7 6.5V7.5C7 7.77614 7.22386 8 7.5 8C7.77614 8 8 7.77614 8 7.5V6.5C8 6.22386 7.77614 6 7.5 6Z" fill="var(--fill-0, #17191C)"/>
<path d="M5 7.5C5 7.22386 5.22386 7 5.5 7C5.77614 7 6 7.22386 6 7.5V8.5C6 8.77614 5.77614 9 5.5 9C5.22386 9 5 8.77614 5 8.5V7.5Z" fill="var(--fill-0, #17191C)"/>
<path d="M3.5 8C3.22386 8 3 8.22386 3 8.5V9.5C3 9.77614 3.22386 10 3.5 10C3.77614 10 4 9.77614 4 9.5V8.5C4 8.22386 3.77614 8 3.5 8Z" fill="var(--fill-0, #17191C)"/>
<path fill-rule="evenodd" clip-rule="evenodd" d="M12 0L0.546198 5.83296C0.211041 6.00364 0 6.34794 0 6.72406V14C0 14.5523 0.447716 15 1 15H23C23.5523 15 24 14.5523 24 14V6.72406C24 6.34794 23.789 6.00364 23.4538 5.83295L21 4.58333V2C21 1.44772 20.5523 1 20 1C19.4477 1 19 1.44772 19 2V3.56481L12 0ZM13 2.75367V13L22 13V7.337L13 2.75367ZM11 13V2.75367L2 7.337V13L4 13V11.568C4 11.1512 4.25857 10.778 4.64888 10.6317L7.64888 9.50667C8.30263 9.26152 9 9.74479 9 10.443V13H11Z" fill="var(--fill-0, #17191C)"/>
</g>
</svg>
