<svg width="24" height="24" viewBox="0 0 24 24" fill="none" xmlns="http://www.w3.org/2000/svg">
<path d="M17.2432 1.70801C17.766 1.70815 18.1885 2.13238 18.1885 2.6543V2.98926H20.4268C21.4996 2.98926 22.3728 3.86176 22.373 4.93555V20.0654C22.3728 21.1382 21.4996 22.0107 20.4268 22.0107H3.5752C2.50234 22.0107 1.62913 21.1382 1.62891 20.0654V4.93555C1.62916 3.86176 2.50235 2.98926 3.5752 2.98926H5.8125V2.6543C5.8125 2.13233 6.23586 1.70806 6.75781 1.70801C7.28081 1.70801 7.7041 2.1323 7.7041 2.6543V2.98926H16.2969V2.6543C16.2969 2.1323 16.7212 1.70801 17.2432 1.70801ZM3.52051 20.0654L20.4268 20.1182C20.4566 20.1182 20.4793 20.0952 20.4795 20.0654V8.9668H3.56055L3.52051 20.0654ZM7.98047 15.2158C8.1477 15.2158 8.2831 15.3513 8.2832 15.5186V17.3916C8.2832 17.5589 8.14777 17.6943 7.98047 17.6943H6.10742C5.94022 17.6943 5.80469 17.5588 5.80469 17.3916V15.5186C5.80475 15.3514 5.94026 15.2159 6.10742 15.2158H7.98047ZM12.9375 15.2158C13.1047 15.2158 13.2402 15.3513 13.2402 15.5186V17.3916C13.2402 17.5589 13.1048 17.6943 12.9375 17.6943H11.0645C10.8972 17.6943 10.7617 17.5588 10.7617 17.3916V15.5186C10.7618 15.3514 10.8973 15.2159 11.0645 15.2158H12.9375ZM17.8945 15.2158C18.0618 15.2158 18.1972 15.3513 18.1973 15.5186V17.3916C18.1973 17.5589 18.0618 17.6943 17.8945 17.6943H16.0215C15.8543 17.6942 15.7188 17.5588 15.7188 17.3916V15.5186C15.7188 15.3514 15.8543 15.2159 16.0215 15.2158H17.8945ZM7.98047 11.3066C8.1477 11.3066 8.2831 11.4422 8.2832 11.6094V13.4824C8.2832 13.6497 8.14773 13.7852 7.98047 13.7852H6.10742C5.94022 13.7851 5.80469 13.6496 5.80469 13.4824V11.6094C5.80475 11.4422 5.94026 11.3067 6.10742 11.3066H7.98047ZM12.9375 11.3066C13.1047 11.3066 13.2402 11.4422 13.2402 11.6094V13.4824C13.2402 13.6497 13.1048 13.7852 12.9375 13.7852H11.0645C10.8972 13.7851 10.7617 13.6496 10.7617 13.4824V11.6094C10.7618 11.4422 10.8973 11.3067 11.0645 11.3066H12.9375ZM17.8945 11.3066C18.0618 11.3066 18.1972 11.4422 18.1973 11.6094V13.4824C18.1973 13.6497 18.0618 13.7852 17.8945 13.7852H16.0215C15.8543 13.7851 15.7188 13.6497 15.7188 13.4824V11.6094C15.7188 11.4422 15.8543 11.3067 16.0215 11.3066H17.8945ZM3.56836 6.9668H20.4795V4.93555L3.5752 4.88184L3.56836 6.9668Z" fill="#0A76DB"/>
</svg>
