<svg width="16" height="16" viewBox="0 0 16 16" fill="none" xmlns="http://www.w3.org/2000/svg">
<g clip-path="url(#clip0_926_34613)">
<path d="M6.38308 0.843182C7.92557 0.494676 9.53952 0.653993 10.984 1.29761C11.3203 1.44746 11.4714 1.84183 11.3216 2.17814C11.1717 2.51434 10.7776 2.66548 10.4414 2.51571C9.25952 1.98911 7.93906 1.85851 6.67703 2.14364C5.41505 2.42877 4.27905 3.11426 3.43842 4.09774C2.59779 5.08127 2.09746 6.3103 2.01231 7.60132C1.92718 8.89234 2.26158 10.1764 2.96576 11.2618C3.66997 12.3472 4.70622 13.176 5.91987 13.6244C7.13351 14.0728 8.45973 14.1169 9.70047 13.7501C10.9412 13.3832 12.0303 12.6249 12.805 11.5886C13.5795 10.5525 13.9985 9.29374 13.9993 8.00008V7.3868C13.9993 7.01861 14.2978 6.72014 14.666 6.72013C15.0341 6.72013 15.3326 7.01861 15.3326 7.3868V8.00041C15.3317 9.58177 14.8195 11.1206 13.8727 12.3871C12.9258 13.6536 11.5948 14.5804 10.0784 15.0287C8.56199 15.477 6.94126 15.4231 5.45795 14.8751C3.9746 14.3271 2.70798 13.3143 1.84727 11.9877C0.98658 10.6611 0.57788 9.09168 0.68191 7.51375C0.785959 5.9358 1.3973 4.43365 2.42475 3.23153C3.45218 2.02945 4.84064 1.1917 6.38308 0.843182ZM14.1943 2.1954C14.4545 1.93496 14.8765 1.93491 15.137 2.19507C15.3975 2.45527 15.3978 2.87729 15.1376 3.13778L8.47097 9.81128L8.42214 9.85555C8.30356 9.95282 8.15434 10.0065 7.99962 10.0066C7.82275 10.0066 7.653 9.93635 7.52794 9.81128L5.52794 7.81128C5.26762 7.55093 5.2676 7.12891 5.52794 6.86857C5.78828 6.60827 6.21031 6.60827 6.47065 6.86857L7.99897 8.39689L14.1943 2.1954Z" fill="#2FAA4E"/>
</g>
<defs>
<clipPath id="clip0_926_34613">
<rect width="16" height="16" fill="white"/>
</clipPath>
</defs>
</svg>
