<svg width="24" height="24" viewBox="0 0 24 24" fill="none" xmlns="http://www.w3.org/2000/svg">
<path d="M7.26172 20.2236H16.9033L17.8584 8.83594H19.8643L18.8193 21.3066C18.7763 21.8256 18.3432 22.2236 17.8232 22.2236H6.3418C5.8218 22.2236 5.3887 21.8256 5.3457 21.3066L4.30078 8.83594H6.30664L7.26172 20.2236ZM11.084 18.0645C11.109 18.6165 10.6828 19.0853 10.1318 19.1113C10.116 19.1123 10.0989 19.1123 10.084 19.1123C9.55416 19.1122 9.11105 18.695 9.08594 18.1592L8.64941 8.83594H10.6514L11.084 18.0645ZM15.0801 18.1592C15.055 18.695 14.6119 19.1122 14.082 19.1123C14.0661 19.1123 14.0501 19.1123 14.0342 19.1113C13.4822 19.0853 13.057 18.6165 13.082 18.0645L13.5146 8.83594H15.5176L15.0801 18.1592ZM15.5273 1.77637C15.7362 1.77649 15.9052 1.9454 15.9053 2.1543V2.66309H20.1973C20.4792 2.66313 20.7485 2.78225 20.9375 2.99121C21.1274 3.1992 21.2204 3.47881 21.1924 3.75977L20.9531 6.24316C20.9041 6.75616 20.473 7.14746 19.958 7.14746H4.04199C3.52605 7.1474 3.09587 6.75612 3.04688 6.24316L2.80664 3.75977C2.77964 3.47877 2.8735 3.19921 3.0625 2.99121C3.2524 2.78248 3.52 2.66319 3.80273 2.66309H8.09473V2.1543C8.09476 1.94548 8.26389 1.77661 8.47266 1.77637H15.5273ZM4.90332 4.66309L4.9502 5.14746H19.0498L19.0967 4.66309H4.90332Z" fill="currentColor"/>
</svg>
