<svg width="22" height="17" viewBox="0 0 22 17" fill="none" xmlns="http://www.w3.org/2000/svg">
<g clip-path="url(#clip0_926_36036)">
<path d="M4.22664 9.06742L13.5172 9.06742L9.82894 12.8675C9.39884 13.3106 9.39884 14.028 9.82894 14.47V14.47C10.2579 14.9132 10.9542 14.9132 11.3843 14.47L17.3782 8.29448C17.5718 8.09502 17.5718 7.77202 17.3782 7.57255L11.3843 1.39702C10.9542 0.953884 10.2579 0.953884 9.82894 1.39702V1.39702C9.39884 1.83902 9.39884 2.55755 9.82894 2.99955L13.5172 6.80075L4.22664 6.80075C3.61834 6.80075 3.12664 7.30735 3.12664 7.93408V7.93408C3.12664 8.55968 3.61834 9.06742 4.22664 9.06742Z" fill="black"/>
</g>
<defs>
<clipPath id="clip0_926_36036">
<rect width="22" height="17" fill="white" transform="matrix(1 0 0 -1 0 17)"/>
</clipPath>
</defs>
</svg>
