<svg width="22" height="17" viewBox="0 0 22 17" fill="none" xmlns="http://www.w3.org/2000/svg">
<g clip-path="url(#clip0_926_36036)">
<path d="M16.4238 6.79916H7.13315L10.8215 2.99909C11.2516 2.55596 11.2516 1.83856 10.8215 1.39656C10.3925 0.953426 9.69615 0.953426 9.26605 1.39656L3.27215 7.57209C3.07855 7.77156 3.07855 8.09456 3.27215 8.29403L9.26605 14.4696C9.69615 14.9127 10.3925 14.9127 10.8215 14.4696C11.2516 14.0276 11.2516 13.309 10.8215 12.867L7.13315 9.06583H16.4238C17.0321 9.06583 17.5238 8.55923 17.5238 7.93249C17.5238 7.30689 17.0321 6.79916 16.4238 6.79916Z" fill="#595959"/>
</g>
<defs>
<clipPath id="clip0_926_36036">
<rect width="22" height="17" fill="white" transform="matrix(1 0 0 -1 0 17)"/>
</clipPath>
</defs>
</svg>
