<svg preserveAspectRatio="none" width="100%" height="100%" overflow="visible" style="display: block;" viewBox="0 0 20.7441 20.3027" fill="none" xmlns="http://www.w3.org/2000/svg">
<path id="Icon" d="M15.6143 0C16.1371 0.00013914 16.5596 0.424375 16.5596 0.946289V1.28125H18.7979C19.8707 1.28125 20.7439 2.15375 20.7441 3.22754V18.3574C20.7439 19.4302 19.8707 20.3027 18.7979 20.3027H1.94629C0.87343 20.3027 0.000228601 19.4302 0 18.3574V3.22754C0.000249699 2.15375 0.873443 1.28125 1.94629 1.28125H4.18359V0.946289C4.18359 0.42432 4.60695 5.08639e-05 5.12891 0C5.65191 0 6.0752 0.424289 6.0752 0.946289V1.28125H14.668V0.946289C14.668 0.424289 15.0923 0 15.6143 0ZM1.8916 18.3574L18.7979 18.4102C18.8277 18.4102 18.8504 18.3872 18.8506 18.3574V7.25879H1.93164L1.8916 18.3574ZM6.35156 13.5078C6.5188 13.5078 6.6542 13.6433 6.6543 13.8105V15.6836C6.6543 15.8509 6.51886 15.9863 6.35156 15.9863H4.47852C4.31131 15.9863 4.17578 15.8508 4.17578 15.6836V13.8105C4.17585 13.6434 4.31135 13.5079 4.47852 13.5078H6.35156ZM11.3086 13.5078C11.4758 13.5078 11.6113 13.6433 11.6113 13.8105V15.6836C11.6113 15.8509 11.4759 15.9863 11.3086 15.9863H9.43555C9.26834 15.9863 9.13281 15.8508 9.13281 15.6836V13.8105C9.13288 13.6434 9.26838 13.5079 9.43555 13.5078H11.3086ZM16.2656 13.5078C16.4328 13.5078 16.5683 13.6433 16.5684 13.8105V15.6836C16.5684 15.8509 16.4329 15.9863 16.2656 15.9863H14.3926C14.2254 15.9862 14.0898 15.8508 14.0898 15.6836V13.8105C14.0899 13.6434 14.2254 13.5079 14.3926 13.5078H16.2656ZM6.35156 9.59863C6.5188 9.59863 6.6542 9.73415 6.6543 9.90137V11.7744C6.6543 11.9417 6.51883 12.0771 6.35156 12.0771H4.47852C4.31131 12.0771 4.17578 11.9416 4.17578 11.7744V9.90137C4.17585 9.7342 4.31135 9.5987 4.47852 9.59863H6.35156ZM11.3086 9.59863C11.4758 9.59863 11.6113 9.73416 11.6113 9.90137V11.7744C11.6113 11.9417 11.4759 12.0771 11.3086 12.0771H9.43555C9.26834 12.0771 9.13281 11.9416 9.13281 11.7744V9.90137C9.13288 9.7342 9.26838 9.5987 9.43555 9.59863H11.3086ZM16.2656 9.59863C16.4328 9.59863 16.5683 9.73416 16.5684 9.90137V11.7744C16.5684 11.9417 16.4329 12.0771 16.2656 12.0771H14.3926C14.2254 12.077 14.0898 11.9416 14.0898 11.7744V9.90137C14.0899 9.7342 14.2254 9.5987 14.3926 9.59863H16.2656ZM1.93945 5.25879H18.8506V3.22754L1.94629 3.17383L1.93945 5.25879Z" fill="var(--fill-0, #17191C)"/>
</svg>
