<svg width="24" height="24" viewBox="0 0 24 24" fill="none" xmlns="http://www.w3.org/2000/svg">
<path d="M14.5 10C14.2239 10 14 10.2239 14 10.5V11.5C14 11.7761 14.2239 12 14.5 12C14.7761 12 15 11.7761 15 11.5V10.5C15 10.2239 14.7761 10 14.5 10Z" fill="#595959"/>
<path d="M16 11.5C16 11.2239 16.2239 11 16.5 11C16.7761 11 17 11.2239 17 11.5V12.5C17 12.7761 16.7761 13 16.5 13C16.2239 13 16 12.7761 16 12.5V11.5Z" fill="#595959"/>
<path d="M18.5 12C18.2239 12 18 12.2239 18 12.5V13.5C18 13.7761 18.2239 14 18.5 14C18.7761 14 19 13.7761 19 13.5V12.5C19 12.2239 18.7761 12 18.5 12Z" fill="#595959"/>
<path d="M20 13.5C20 13.2239 20.2239 13 20.5 13C20.7761 13 21 13.2239 21 13.5V14.5C21 14.7761 20.7761 15 20.5 15C20.2239 15 20 14.7761 20 14.5V13.5Z" fill="#595959"/>
<path d="M9.5 10C9.22386 10 9 10.2239 9 10.5V11.5C9 11.7761 9.22386 12 9.5 12C9.77614 12 10 11.7761 10 11.5V10.5C10 10.2239 9.77614 10 9.5 10Z" fill="#595959"/>
<path d="M7.5 11C7.22386 11 7 11.2239 7 11.5V12.5C7 12.7761 7.22386 13 7.5 13C7.77614 13 8 12.7761 8 12.5L8 11.5C8 11.2239 7.77614 11 7.5 11Z" fill="#595959"/>
<path d="M5 12.5C5 12.2239 5.22386 12 5.5 12C5.77614 12 6 12.2239 6 12.5V13.5C6 13.7761 5.77614 14 5.5 14C5.22386 14 5 13.7761 5 13.5V12.5Z" fill="#595959"/>
<path d="M3.5 13C3.22386 13 3 13.2239 3 13.5L3 14.5C3 14.7761 3.22386 15 3.5 15C3.77614 15 4 14.7761 4 14.5V13.5C4 13.2239 3.77614 13 3.5 13Z" fill="#595959"/>
<path fill-rule="evenodd" clip-rule="evenodd" d="M12 5L0.546198 10.833C0.211041 11.0036 0 11.3479 0 11.7241L0 19C0 19.5523 0.447716 20 1 20L23 20C23.5523 20 24 19.5523 24 19V11.7241C24 11.3479 23.789 11.0036 23.4538 10.833L21 9.58333V7C21 6.44772 20.5523 6 20 6C19.4477 6 19 6.44772 19 7V8.56481L12 5ZM13 7.75367L13 18L22 18V12.337L13 7.75367ZM11 18L11 7.75367L2 12.337L2 18L4 18V16.568C4 16.1512 4.25857 15.778 4.64888 15.6317L7.64888 14.5067C8.30263 14.2615 9 14.7448 9 15.443V18H11Z" fill="#595959"/>
</svg>
