<svg width="60" height="27" viewBox="0 0 60 27" fill="none" xmlns="http://www.w3.org/2000/svg">
<path fill-rule="evenodd" clip-rule="evenodd" d="M55.6243 25.9291L48.7388 17.0723C48.1616 16.392 48.0046 15.4448 48.3336 14.6126C48.6615 13.7804 49.4193 13.1999 50.3019 13.1066C51.1845 13.0122 52.0467 13.4201 52.539 14.1645L54.158 16.2455C55.706 13.2455 55.19 9.58468 52.8766 7.13909C50.5621 4.69241 46.9619 4.00452 43.9217 5.42804C40.8816 6.85048 39.0756 10.0686 39.4303 13.4321C39.9195 17.6733 43.6207 20.7797 47.8412 20.4911L48.3003 20.464C49.5752 20.3945 50.6653 21.3775 50.7416 22.6633C50.8179 23.949 49.8515 25.0557 48.5776 25.1403L48.2014 25.162C41.3428 25.5635 35.4044 20.4043 34.7777 13.4994C34.4509 8.99335 36.5439 4.65552 40.2602 2.13724C43.9766 -0.382129 48.7453 -0.696779 52.7551 1.31372C56.7649 3.32314 59.3976 7.34849 59.6545 11.8599C59.7986 14.2285 59.2729 16.5894 58.1377 18.6672C57.8571 19.1826 57.541 19.6763 57.1917 20.1471L59.4277 23.0213H59.4255C60.0028 23.7016 60.1587 24.6488 59.8308 25.481C59.5029 26.3132 58.7451 26.8937 57.8614 26.987C57.7775 26.9957 57.6926 27 57.6098 27C56.8176 27 56.0704 26.6029 55.6243 25.9291ZM22.1775 24.3895L24.5425 19.1446L19.0685 7.76622H20.7843L25.3778 17.2893L29.6692 7.76622H31.3624L23.8728 24.3895H22.1775ZM15.936 18.5847V12.4263C15.936 10.1793 14.7782 8.89028 12.8528 8.89028C11.4145 8.89245 10.0944 9.69426 9.41817 10.9746C9.51385 11.4292 9.56007 11.8925 9.55577 12.3568V18.5847H7.97981V12.4263C7.97981 10.1793 6.7973 8.89028 4.89453 8.89028C3.52496 8.91957 2.26935 9.66497 1.57704 10.8585V18.5847H0V7.7673H1.57704V9.00746C2.46715 7.94416 3.79479 7.35609 5.17295 7.41576C6.66614 7.36911 8.06796 8.13837 8.83874 9.42952C9.86645 8.10148 11.4628 7.35283 13.1302 7.41576C15.7048 7.41576 17.5152 9.31234 17.5152 12.359L17.5141 12.3568V18.5847H15.936Z" fill="#009CDE"/>
</svg>
