<svg width="452" height="39" viewBox="0 0 452 39" fill="none" xmlns="http://www.w3.org/2000/svg">
<path fill-rule="evenodd" clip-rule="evenodd" d="M197.763 27.4535L193.358 22.0567C192.989 21.6421 192.888 21.065 193.099 20.5579C193.309 20.0508 193.793 19.6971 194.358 19.6402C194.923 19.5827 195.474 19.8313 195.79 20.2848L196.825 21.5529C197.816 19.7248 197.486 17.4942 196.005 16.004C194.525 14.5131 192.221 14.0939 190.276 14.9614C188.331 15.8281 187.175 17.789 187.402 19.8386C187.715 22.4229 190.083 24.3158 192.784 24.1399L193.078 24.1234C193.893 24.0811 194.591 24.6801 194.64 25.4635C194.688 26.247 194.07 26.9213 193.255 26.9729L193.014 26.9861C188.626 27.2307 184.827 24.087 184.426 19.8796C184.217 17.1338 185.556 14.4906 187.933 12.9561C190.311 11.421 193.362 11.2292 195.928 12.4543C198.493 13.6787 200.178 16.1316 200.342 18.8806C200.434 20.3238 200.098 21.7625 199.372 23.0285C199.192 23.3426 198.99 23.6434 198.766 23.9303L200.197 25.6817H200.196C200.565 26.0962 200.665 26.6734 200.455 27.1805C200.245 27.6876 199.76 28.0413 199.195 28.0981C199.141 28.1034 199.087 28.1061 199.034 28.1061C198.527 28.1061 198.049 27.8641 197.764 27.4535L197.763 27.4535Z" fill="#009CDE"/>
<path fill-rule="evenodd" clip-rule="evenodd" d="M176.364 26.5153L177.877 23.3193L174.375 16.386H175.473L178.412 22.1888L181.157 16.386H182.241L177.449 26.5153L176.364 26.5153Z" fill="#009CDE"/>
<path fill-rule="evenodd" clip-rule="evenodd" d="M172.37 22.9779V19.2253C172.37 17.8561 171.629 17.0707 170.397 17.0707C169.477 17.072 168.632 17.5606 168.2 18.3407C168.261 18.6177 168.29 18.9 168.288 19.183V22.9779H167.279V19.2253C167.279 17.8561 166.523 17.0707 165.305 17.0707C164.429 17.0885 163.626 17.5427 163.183 18.27V22.9779H162.174V16.3864H163.183V17.1421C163.752 16.4942 164.602 16.1358 165.484 16.1722C166.439 16.1438 167.336 16.6125 167.829 17.3993C168.486 16.59 169.508 16.1339 170.575 16.1722C172.222 16.1722 173.38 17.3279 173.38 19.1843L173.38 19.183V22.9779L172.37 22.9779Z" fill="#009CDE"/>
<path d="M211.448 26.1943H207.763C206.995 26.1943 206.4 25.5801 206.4 24.8315V13.0654C206.4 12.3168 206.995 11.7026 207.763 11.7026H211.448C214.999 11.7026 217.456 13.7756 217.456 18.1327V19.8986C217.456 24.2557 214.999 26.1943 211.448 26.1943ZM211.448 14.0827H209.126V23.795H211.448C213.54 23.795 214.711 22.8545 214.711 20.033V17.9984C214.711 15.4071 213.521 14.0827 211.448 14.0827ZM218.841 21.6261V20.3593C218.841 17.077 220.991 15.4839 223.774 15.4839C226.557 15.4839 228.745 17.077 228.745 20.3593V21.6261C228.745 24.8891 226.557 26.4823 223.774 26.4823C220.991 26.4823 218.841 24.8891 218.841 21.6261ZM221.528 20.3401V21.6261C221.528 23.5071 222.373 24.4093 223.774 24.4093C225.175 24.4093 226.039 23.5071 226.039 21.6261V20.3401C226.039 18.459 225.175 17.5761 223.774 17.5761C222.373 17.5761 221.528 18.459 221.528 20.3401ZM235.053 15.4839C236.108 15.4839 237.202 15.6567 237.97 16.1173C238.335 16.3477 238.565 16.7123 238.565 17.173C238.565 17.7296 238.124 18.2095 237.548 18.2095C237.433 18.2095 237.317 18.1903 237.222 18.1519C236.607 17.9408 235.993 17.6529 235.244 17.6529C233.632 17.6529 232.692 18.5742 232.692 20.3401V21.6261C232.692 23.3344 233.632 24.3133 235.206 24.3133C235.993 24.3133 236.607 23.9678 237.298 23.7183C237.394 23.6799 237.49 23.6415 237.625 23.6415C238.2 23.6415 238.584 24.1405 238.584 24.6588C238.584 25.1003 238.373 25.465 238.028 25.6953C237.279 26.2135 236.223 26.4823 234.976 26.4823C231.751 26.4823 230.004 24.6204 230.004 21.5685V20.4168C230.004 17.4801 231.54 15.4839 235.053 15.4839ZM245.852 16.3668C246.102 15.9254 246.447 15.6375 246.966 15.6375C247.637 15.6375 248.213 16.1173 248.213 16.8083C248.213 17.0962 248.098 17.3266 247.964 17.5377L245.891 20.5512L248.386 24.6012C248.54 24.8507 248.597 25.0619 248.597 25.2538C248.597 25.9256 248.06 26.4823 247.35 26.4823C246.831 26.4823 246.447 26.1751 246.217 25.7721L243.779 21.818H242.57V25.177C242.57 25.9064 241.994 26.4823 241.246 26.4823C240.516 26.4823 239.941 25.9064 239.941 25.177V12.7583C239.941 12.0289 240.516 11.4339 241.246 11.4339C241.994 11.4339 242.57 12.0289 242.57 12.7583V19.8026H243.741L245.852 16.3668Z" fill="#003B5C"/>
<path d="M260.097 16.0981C260.097 18.7853 258.542 20.7623 255.356 20.7623H252.227V25.4266C252.227 25.9448 251.805 26.3671 251.287 26.3671C250.768 26.3671 250.346 25.9448 250.346 25.4266V12.6431C250.346 12.1249 250.768 11.7026 251.287 11.7026H255.279C258.581 11.7026 260.097 13.718 260.097 16.0981ZM255.049 13.3917H252.227V19.1116H255.26C257.563 19.1116 258.158 17.6913 258.158 16.2709C258.158 14.3131 257.141 13.3917 255.049 13.3917ZM267.582 25.5993V25.0811C266.911 26.0216 265.855 26.4823 264.511 26.4823C262.15 26.4823 261.076 25.3882 261.076 23.5263C261.076 21.223 262.554 20.3017 265.471 20.3017H267.582V20.0713C267.582 18.3631 267.179 17.2498 264.895 17.2498C264.089 17.2498 263.283 17.5377 262.688 17.9984C262.534 18.1135 262.362 18.2095 262.112 18.2095C261.651 18.2095 261.344 17.9024 261.344 17.4417C261.344 17.1346 261.498 16.9043 261.69 16.7699C262.438 16.2133 263.341 15.6567 265.222 15.6567C268.427 15.6567 269.368 17.0386 269.368 19.9754V25.5993C269.368 26.0984 268.964 26.4823 268.465 26.4823C267.966 26.4823 267.582 26.0984 267.582 25.5993ZM267.582 22.3747V21.818H265.375C263.475 21.818 262.861 22.1635 262.861 23.4687C262.861 24.4668 263.475 24.9659 264.723 24.9659C266.009 24.9659 267.582 24.3517 267.582 22.3747ZM275.203 24.9083C276.432 24.9083 277.526 24.4477 277.526 23.296C277.526 22.0676 276.297 21.818 275.376 21.7604L274.359 21.6837C272.765 21.5685 271.211 20.8967 271.211 18.8621C271.211 16.5972 273.149 15.6375 275.107 15.6375C276.547 15.6375 277.948 15.9638 278.428 16.2325C278.677 16.3668 278.888 16.6164 278.888 16.9619C278.888 17.5761 278.389 17.9792 277.506 17.6337C276.719 17.3458 275.971 17.2498 275.318 17.2498C273.802 17.2498 272.919 17.7488 272.919 18.7661C272.919 19.937 274.109 20.0905 275.069 20.1673L276.22 20.2633C277.871 20.3977 279.272 21.127 279.272 23.0657C279.272 25.5993 276.873 26.4631 274.915 26.4631C273.456 26.4631 272.113 26.0792 271.671 25.8296C271.422 25.6953 271.211 25.4458 271.211 25.1003C271.211 24.3901 271.883 24.1789 272.65 24.4668C273.303 24.7164 274.397 24.9083 275.203 24.9083ZM284.548 24.9083C285.777 24.9083 286.871 24.4477 286.871 23.296C286.871 22.0676 285.642 21.818 284.721 21.7604L283.704 21.6837C282.111 21.5685 280.556 20.8967 280.556 18.8621C280.556 16.5972 282.494 15.6375 284.452 15.6375C285.892 15.6375 287.293 15.9638 287.773 16.2325C288.022 16.3668 288.234 16.6164 288.234 16.9619C288.234 17.5761 287.735 17.9792 286.852 17.6337C286.065 17.3458 285.316 17.2498 284.663 17.2498C283.147 17.2498 282.264 17.7488 282.264 18.7661C282.264 19.937 283.454 20.0905 284.414 20.1673L285.566 20.2633C287.216 20.3977 288.617 21.127 288.617 23.0657C288.617 25.5993 286.218 26.4631 284.26 26.4631C282.802 26.4631 281.458 26.0792 281.017 25.8296C280.767 25.6953 280.556 25.4458 280.556 25.1003C280.556 24.3901 281.228 24.1789 281.995 24.4668C282.648 24.7164 283.742 24.9083 284.548 24.9083Z" fill="#009CDE"/>
</svg>
