<svg width="24" height="24" viewBox="0 0 24 24" fill="none" xmlns="http://www.w3.org/2000/svg">
<path d="M12 15C13.6569 15 15 13.6569 15 12C15 10.3431 13.6569 9 12 9C10.3431 9 9 10.3431 9 12C9 13.6569 10.3431 15 12 15Z" stroke="#404040" stroke-width="1.5" stroke-linecap="round" stroke-linejoin="round"/>
<path d="M19.4 15C19.2669 15.3016 19.2272 15.6362 19.286 15.9606C19.3448 16.285 19.4995 16.5843 19.73 16.82L19.79 16.88C19.976 17.0657 20.1235 17.2863 20.2241 17.5291C20.3248 17.7719 20.3766 18.0322 20.3766 18.295C20.3766 18.5578 20.3248 18.8181 20.2241 19.0609C20.1235 19.3037 19.976 19.5243 19.79 19.71C19.6043 19.896 19.3837 20.0435 19.1409 20.1441C18.8981 20.2448 18.6378 20.2966 18.375 20.2966C18.1122 20.2966 17.8519 20.2448 17.6091 20.1441C17.3663 20.0435 17.1457 19.896 16.96 19.71L16.9 19.65C16.6643 19.4195 16.365 19.2648 16.0406 19.206C15.7162 19.1472 15.3816 19.1869 15.08 19.32C14.7842 19.4468 14.532 19.6572 14.3543 19.9255C14.1766 20.1938 14.0813 20.5082 14.08 20.83V21C14.08 21.5304 13.8693 22.0391 13.4942 22.4142C13.1191 22.7893 12.6104 23 12.08 23H11.92C11.3896 23 10.8809 22.7893 10.5058 22.4142C10.1307 22.0391 9.92 21.5304 9.92 21V20.91C9.91871 20.5882 9.82343 20.2738 9.64572 20.0055C9.46802 19.7372 9.21579 19.5268 8.92 19.4C8.61838 19.2669 8.28381 19.2272 7.95941 19.286C7.63502 19.3448 7.33568 19.4995 7.1 19.73L7.04 19.79C6.85425 19.976 6.63368 20.1235 6.39087 20.2241C6.14806 20.3248 5.8878 20.3766 5.625 20.3766C5.3622 20.3766 5.10194 20.3248 4.85913 20.2241C4.61632 20.1235 4.39575 19.976 4.21 19.79C4.02405 19.6043 3.87653 19.3837 3.77587 19.1409C3.67522 18.8981 3.62344 18.6378 3.62344 18.375C3.62344 18.1122 3.67522 17.8519 3.77587 17.6091C3.87653 17.3663 4.02405 17.1457 4.21 16.96L4.27 16.9C4.50046 16.6643 4.65519 16.365 4.714 16.0406C4.77282 15.7162 4.73312 15.3816 4.6 15.08C4.47324 14.7842 4.26279 14.532 3.9945 14.3543C3.72622 14.1766 3.41179 14.0813 3.09 14.08H3C2.46957 14.08 1.96086 13.8693 1.58579 13.4942C1.21071 13.1191 1 12.6104 1 12.08V11.92C1 11.3896 1.21071 10.8809 1.58579 10.5058C1.96086 10.1307 2.46957 9.92 3 9.92H3.09C3.41179 9.91871 3.72622 9.82343 3.9945 9.64572C4.26279 9.46802 4.47324 9.21579 4.6 8.92C4.73312 8.61838 4.77282 8.28381 4.714 7.95941C4.65519 7.63502 4.50046 7.33568 4.27 7.1L4.21 7.04C4.02405 6.85425 3.87653 6.63368 3.77587 6.39087C3.67522 6.14806 3.62344 5.8878 3.62344 5.625C3.62344 5.3622 3.67522 5.10194 3.77587 4.85913C3.87653 4.61632 4.02405 4.39575 4.21 4.21C4.39575 4.02405 4.61632 3.87653 4.85913 3.77587C5.10194 3.67522 5.3622 3.62344 5.625 3.62344C5.8878 3.62344 6.14806 3.67522 6.39087 3.77587C6.63368 3.87653 6.85425 4.02405 7.04 4.21L7.1 4.27C7.33568 4.50046 7.63502 4.65519 7.95941 4.714C8.28381 4.77282 8.61838 4.73312 8.92 4.6H9C9.29578 4.47324 9.54802 4.26279 9.72572 3.9945C9.90343 3.72622 9.99871 3.41179 10 3.09V3C10 2.46957 10.2107 1.96086 10.5858 1.58579C10.9609 1.21071 11.4696 1 12 1H12.08C12.6104 1 13.1191 1.21071 13.4942 1.58579C13.8693 1.96086 14.08 2.46957 14.08 3V3.09C14.0813 3.41179 14.1766 3.72622 14.3543 3.9945C14.532 4.26279 14.7842 4.47324 15.08 4.6C15.3816 4.73312 15.7162 4.77282 16.0406 4.714C16.365 4.65519 16.6643 4.50046 16.9 4.27L16.96 4.21C17.1457 4.02405 17.3663 3.87653 17.6091 3.77587C17.8519 3.67522 18.1122 3.62344 18.375 3.62344C18.6378 3.62344 18.8981 3.67522 19.1409 3.77587C19.3837 3.87653 19.6043 4.02405 19.79 4.21C19.976 4.39575 20.1235 4.61632 20.2241 4.85913C20.3248 5.10194 20.3766 5.3622 20.3766 5.625C20.3766 5.8878 20.3248 6.14806 20.2241 6.39087C20.1235 6.63368 19.976 6.85425 19.79 7.04L19.73 7.1C19.4995 7.33568 19.3448 7.63502 19.286 7.95941C19.2272 8.28381 19.2669 8.61838 19.4 8.92C19.5268 9.21579 19.7372 9.46802 20.0055 9.64572C20.2738 9.82343 20.5882 9.91871 20.91 10H21C21.5304 10 22.0391 10.2107 22.4142 10.5858C22.7893 10.9609 23 11.4696 23 12V12.08C23 12.6104 22.7893 13.1191 22.4142 13.4942C22.0391 13.8693 21.5304 14.08 21 14.08H20.91C20.5882 14.0813 20.2738 14.1766 20.0055 14.3543C19.7372 14.532 19.5268 14.7842 19.4 15.08V15Z" stroke="#404040" stroke-width="1.5" stroke-linecap="round" stroke-linejoin="round"/>
</svg>
