<svg width="24" height="24" viewBox="0 0 24 24" fill="none" xmlns="http://www.w3.org/2000/svg">
<path d="M20.5919 10.0238C20.5309 9.83285 20.3619 9.69884 20.1629 9.67985L14.6489 9.16786L12.4589 4.08186C12.3019 3.71685 11.6979 3.71685 11.5409 4.08186L9.35091 9.16786L3.8359 9.67985C3.6379 9.69885 3.46893 9.83285 3.40691 10.0238C3.34591 10.2129 3.40291 10.4219 3.55291 10.5538L7.71291 14.2079L6.4959 19.6099C6.45192 19.8049 6.52791 20.0069 6.68892 20.1239C6.7769 20.1879 6.8799 20.2198 6.9829 20.2198C7.07091 20.2198 7.1599 20.1969 7.23891 20.1499L11.9999 17.3219L16.7609 20.1499C16.9329 20.2519 17.1489 20.2419 17.3109 20.1239C17.4719 20.0069 17.5479 19.8049 17.5039 19.6099L16.2869 14.2079L20.4469 10.5538C20.5969 10.4219 20.6539 10.2129 20.5919 10.0238Z" fill="#009CDE"/>
</svg>
