<svg width="24" height="24" viewBox="0 0 24 24" fill="none" xmlns="http://www.w3.org/2000/svg">
<path fill-rule="evenodd" clip-rule="evenodd" d="M6.98361 20.72C6.77661 20.72 6.57062 20.655 6.39561 20.529C6.07261 20.294 5.91961 19.89 6.00761 19.5L7.16061 14.388L3.22261 10.929C2.92262 10.665 2.80862 10.249 2.93161 9.86902C3.05562 9.48903 3.39262 9.21903 3.79062 9.18202L9.00862 8.69803L11.0816 3.88503C11.2386 3.51803 11.6006 3.28003 11.9996 3.28003C12.3986 3.28003 12.7596 3.51802 12.9176 3.88503L14.9906 8.69803L20.2086 9.18202C20.6066 9.21902 20.9446 9.48903 21.0676 9.86902C21.1916 10.249 21.0766 10.665 20.7766 10.929L16.8396 14.388L17.9916 19.5C18.0796 19.89 17.9266 20.294 17.6046 20.529C17.2796 20.763 16.8486 20.783 16.5056 20.579L11.9996 17.904L7.49461 20.579C7.33662 20.673 7.15962 20.72 6.98361 20.72ZM11.9996 15.74C12.1766 15.74 12.3526 15.787 12.5106 15.881L15.5296 17.674L14.7576 14.248C14.6776 13.891 14.7986 13.519 15.0736 13.278L17.7126 10.959L14.2146 10.635C13.8506 10.601 13.5336 10.37 13.3886 10.034L11.9996 6.80901L10.6106 10.034C10.4666 10.37 10.1496 10.601 9.78462 10.635L6.28761 10.959L8.92662 13.278C9.20161 13.519 9.32262 13.891 9.24162 14.248L8.46962 17.674L11.4886 15.881C11.6466 15.787 11.8226 15.74 11.9996 15.74H11.9996Z" fill="#CCCCCC"/>
</svg>
