<svg width="25" height="24" viewBox="0 0 25 24" fill="none" xmlns="http://www.w3.org/2000/svg">
<path d="M1.44922 4.08923C0.656265 4.08923 0.000173569 4.72978 0 5.5238V15.2367C4.00543e-05 16.0308 0.656183 16.6722 1.44922 16.6722H3.27539V18.1205H3.08691C2.59544 18.1207 2.18474 18.5151 2.18457 19.0179C2.18457 19.5182 2.59762 19.9112 3.08691 19.9115H6.35547C6.84315 19.9115 7.26074 19.5201 7.26074 19.0179C7.26058 18.5131 6.84534 18.1205 6.35547 18.1205H6.16797V16.6722H14.1904C14.1866 16.7339 14.1846 16.796 14.1846 16.8588C14.1846 18.548 15.5724 19.9113 17.2646 19.9115C18.0947 19.9115 18.8722 19.587 19.4521 19.0131C20.0269 19.5871 20.7992 19.9115 21.6309 19.9115C23.3232 19.9114 24.7109 18.548 24.7109 16.8588C24.7109 16.5251 24.6602 16.1931 24.5547 15.89C24.6583 15.6904 24.7109 15.4717 24.7109 15.2367V5.5238C24.7108 4.73067 24.0585 4.08923 23.2646 4.08923H1.44922ZM21.6309 15.5922C22.3365 15.5922 22.9092 16.1625 22.9092 16.8588C22.9092 17.5491 22.3372 18.1204 21.6309 18.1205C20.9226 18.1205 20.3516 17.5494 20.3516 16.8588C20.3516 16.1621 20.9233 15.5922 21.6309 15.5922ZM17.2646 15.5922C17.9776 15.5922 18.5498 16.1633 18.5498 16.8588C18.5498 17.5482 17.9784 18.1205 17.2646 18.1205C16.5583 18.1203 15.9863 17.549 15.9863 16.8588C15.9864 16.1625 16.5591 15.5923 17.2646 15.5922ZM22.9092 14.0736C22.5107 13.8937 22.0762 13.8012 21.6309 13.8011C20.8049 13.8011 20.0284 14.1252 19.4521 14.6996C18.8722 14.1256 18.0948 13.8011 17.2646 13.8011C16.3535 13.8012 15.5106 14.1951 14.9189 14.8812H1.80469V5.87927H22.9092V14.0736Z" fill="#595959"/>
</svg>
