<svg width="24" height="24" viewBox="0 0 24 24" fill="none" xmlns="http://www.w3.org/2000/svg">
<g clip-path="url(#clip0_866_24877)">
<path d="M11.9922 14.166C16.7539 14.1661 19.4842 16.6489 19.4844 20.9775C19.4844 21.6915 19.2337 22.3191 18.7617 22.7891C17.6967 23.8479 15.7756 23.9463 13.5117 23.9463C13.2589 23.9463 13.003 23.9454 12.7422 23.9434L11.9922 23.9414L11.2422 23.9434C8.64719 23.9614 6.40568 23.9661 5.22168 22.7891C4.74977 22.3191 4.5 21.6915 4.5 20.9775C4.5002 16.6488 7.23036 14.166 11.9922 14.166ZM11.9922 16.166C8.29737 16.166 6.50018 17.7399 6.5 20.9775C6.5 21.2055 6.56382 21.3021 6.63379 21.3711C7.22679 21.9621 9.45142 21.9474 11.2324 21.9434L11.9922 21.9414L12.752 21.9434C14.5337 21.9514 16.7563 21.9619 17.3496 21.3711C17.4196 21.3021 17.4844 21.2055 17.4844 20.9775C17.4842 17.7399 15.6869 16.1661 11.9922 16.166ZM11.9922 5C14.4211 5.00016 16.3955 6.97737 16.3955 9.40527C16.3954 11.834 14.421 13.8094 11.9922 13.8096C9.56328 13.8096 7.58804 11.8341 7.58789 9.40527C7.58789 6.97727 9.56319 5 11.9922 5ZM11.9922 7C10.6662 7 9.58789 8.07927 9.58789 9.40527C9.58804 10.7321 10.6663 11.8096 11.9922 11.8096C13.318 11.8094 14.3954 10.732 14.3955 9.40527C14.3955 8.07937 13.3181 7.00016 11.9922 7Z" fill="#595959"/>
</g>
<rect x="1.5" y="1.5" width="21" height="21" rx="10.5" stroke="#595959" stroke-width="2"/>
<defs>
<clipPath id="clip0_866_24877">
<rect x="1.5" y="1.5" width="21" height="21" rx="10.5" fill="white"/>
</clipPath>
</defs>
</svg>
